<?xml version="1.0" encoding="UTF-8" standalone="no"?>
<!DOCTYPE svg PUBLIC "-//W3C//DTD SVG 1.1//EN"
 "http://www.w3.org/Graphics/SVG/1.1/DTD/svg11.dtd">
<!-- Generated by graphviz version 2.38.0 (20140413.2041)
 -->
<!-- Title: algorithm_blocks Pages: 1 -->
<svg width="765pt" height="102pt"
 viewBox="0.00 0.00 764.68 102.00" xmlns="http://www.w3.org/2000/svg" xmlns:xlink="http://www.w3.org/1999/xlink">
<g id="graph0" class="graph" transform="scale(1 1) rotate(0) translate(4 98)">
<title>algorithm_blocks</title>
<polygon fill="white" stroke="none" points="-4,4 -4,-98 760.684,-98 760.684,4 -4,4"/>
<!-- I -->
<g id="node1" class="node"><title>I</title>
<text text-anchor="middle" x="27" y="-42.8" font-family="Helvetica, sans-serif" font-size="14.00">hits</text>
</g>
<!-- A -->
<g id="node3" class="node"><title>A</title>
<path fill="#1c7c4c" stroke="#1c7c4c" d="M173,-94C173,-94 103,-94 103,-94 97,-94 91,-88 91,-82 91,-82 91,-12 91,-12 91,-6 97,-0 103,-0 103,-0 173,-0 173,-0 179,-0 185,-6 185,-12 185,-12 185,-82 185,-82 185,-88 179,-94 173,-94"/>
<text text-anchor="middle" x="138" y="-51.2" font-family="Helvetica, sans-serif" font-size="14.00" fill="white">Primitive</text>
<text text-anchor="middle" x="138" y="-34.4" font-family="Helvetica, sans-serif" font-size="14.00" fill="white">Conversion</text>
</g>
<!-- I&#45;&gt;A -->
<g id="edge1" class="edge"><title>I&#45;&gt;A</title>
<path fill="none" stroke="black" d="M54.1082,-47C63.2691,-47 73.9149,-47 84.4625,-47"/>
<polygon fill="black" stroke="black" points="84.6495,-49.1001 90.6495,-47 84.6494,-44.9001 84.6495,-49.1001"/>
</g>
<!-- O -->
<g id="node2" class="node"><title>O</title>
<text text-anchor="middle" x="729.684" y="-42.8" font-family="Helvetica, sans-serif" font-size="14.00">tracks</text>
</g>
<!-- B -->
<g id="node4" class="node"><title>B</title>
<path fill="#1c7c4c" stroke="#1c7c4c" d="M331.676,-94C331.676,-94 261.676,-94 261.676,-94 255.676,-94 249.676,-88 249.676,-82 249.676,-82 249.676,-12 249.676,-12 249.676,-6 255.676,-0 261.676,-0 261.676,-0 331.676,-0 331.676,-0 337.676,-0 343.676,-6 343.676,-12 343.676,-12 343.676,-82 343.676,-82 343.676,-88 337.676,-94 331.676,-94"/>
<text text-anchor="middle" x="296.676" y="-51.2" font-family="Helvetica, sans-serif" font-size="14.00" fill="white">Pattern</text>
<text text-anchor="middle" x="296.676" y="-34.4" font-family="Helvetica, sans-serif" font-size="14.00" fill="white">Recognition</text>
</g>
<!-- A&#45;&gt;B -->
<g id="edge2" class="edge"><title>A&#45;&gt;B</title>
<path fill="none" stroke="black" d="M185.161,-47C203.408,-47 224.474,-47 243.288,-47"/>
<polygon fill="black" stroke="black" points="243.575,-49.1001 249.575,-47 243.575,-44.9001 243.575,-49.1001"/>
<text text-anchor="middle" x="217.338" y="-65" font-family="Helvetica, sans-serif" font-size="12.00">conv.</text>
<text text-anchor="middle" x="217.338" y="-50.6" font-family="Helvetica, sans-serif" font-size="12.00">hits</text>
</g>
<!-- C -->
<g id="node5" class="node"><title>C</title>
<path fill="#1c7c4c" stroke="#1c7c4c" d="M491.684,-94C491.684,-94 421.684,-94 421.684,-94 415.684,-94 409.684,-88 409.684,-82 409.684,-82 409.684,-12 409.684,-12 409.684,-6 415.684,-0 421.684,-0 421.684,-0 491.684,-0 491.684,-0 497.684,-0 503.684,-6 503.684,-12 503.684,-12 503.684,-82 503.684,-82 503.684,-88 497.684,-94 491.684,-94"/>
<text text-anchor="middle" x="456.684" y="-51.2" font-family="Helvetica, sans-serif" font-size="14.00" fill="white">Track</text>
<text text-anchor="middle" x="456.684" y="-34.4" font-family="Helvetica, sans-serif" font-size="14.00" fill="white">Building</text>
</g>
<!-- B&#45;&gt;C -->
<g id="edge3" class="edge"><title>B&#45;&gt;C</title>
<path fill="none" stroke="black" d="M343.803,-47C362.461,-47 384.097,-47 403.342,-47"/>
<polygon fill="black" stroke="black" points="403.499,-49.1001 409.499,-47 403.499,-44.9001 403.499,-49.1001"/>
<text text-anchor="middle" x="376.68" y="-50.6" font-family="Helvetica, sans-serif" font-size="12.00">roads</text>
</g>
<!-- D -->
<g id="node6" class="node"><title>D</title>
<path fill="#1c7c4c" stroke="#1c7c4c" d="M653.684,-94C653.684,-94 583.684,-94 583.684,-94 577.684,-94 571.684,-88 571.684,-82 571.684,-82 571.684,-12 571.684,-12 571.684,-6 577.684,-0 583.684,-0 583.684,-0 653.684,-0 653.684,-0 659.684,-0 665.684,-6 665.684,-12 665.684,-12 665.684,-82 665.684,-82 665.684,-88 659.684,-94 653.684,-94"/>
<text text-anchor="middle" x="618.684" y="-51.2" font-family="Helvetica, sans-serif" font-size="14.00" fill="white">Parameter</text>
<text text-anchor="middle" x="618.684" y="-34.4" font-family="Helvetica, sans-serif" font-size="14.00" fill="white">Assignment</text>
</g>
<!-- C&#45;&gt;D -->
<g id="edge4" class="edge"><title>C&#45;&gt;D</title>
<path fill="none" stroke="black" d="M503.962,-47C523.2,-47 545.621,-47 565.446,-47"/>
<polygon fill="black" stroke="black" points="565.509,-49.1001 571.509,-47 565.509,-44.9001 565.509,-49.1001"/>
<text text-anchor="middle" x="537.684" y="-65" font-family="Helvetica, sans-serif" font-size="12.00">proto&#45;</text>
<text text-anchor="middle" x="537.684" y="-50.6" font-family="Helvetica, sans-serif" font-size="12.00">tracks</text>
</g>
<!-- D&#45;&gt;O -->
<g id="edge5" class="edge"><title>D&#45;&gt;O</title>
<path fill="none" stroke="black" d="M665.91,-47C676.191,-47 686.874,-47 696.45,-47"/>
<polygon fill="black" stroke="black" points="696.567,-49.1001 702.567,-47 696.567,-44.9001 696.567,-49.1001"/>
</g>
</g>
</svg>
